<svg width="24" height="24" viewBox="0 0 24 24" fill="none" xmlns="http://www.w3.org/2000/svg">
  <path
    d="M4.5 10.4C5.1 8.3 7.2 8.1 8.1 6.3C9.1 4.2 12.7 4.4 13.6 6.8C14.3 8.5 13.4 10.5 11.6 11.3C10 12 9 13.7 7.2 13.2C5.3 12.7 4 12 4.5 10.4Z"
    fill="#C5C5C5"
  />
  <path
    d="M12 12.3L18 6.3M12.7 12.8H19.1M11.8 13.6L16.7 18.4M10.9 14V19.2"
    stroke="#C5C5C5"
    stroke-width="2.1"
    stroke-linecap="round"
  />
  <circle cx="11.3" cy="12.8" r="2.6" fill="#C5C5C5" />
  <circle cx="18.7" cy="5.6" r="2.2" fill="#C5C5C5" />
  <circle cx="20.4" cy="12.8" r="2.2" fill="#C5C5C5" />
  <circle cx="17.6" cy="19.4" r="2.2" fill="#C5C5C5" />
  <circle cx="10.9" cy="20.4" r="2.2" fill="#C5C5C5" />
</svg>
